<svg id="Capa_1" data-name="Capa 1" xmlns="http://www.w3.org/2000/svg" viewBox="0 0 652.53 164"><defs><style>.cls-1{fill:#282828;}.cls-2{fill:#f7f9fb;}</style></defs><title>Mesa de trabajo 6 copia 3</title><rect id="_Rectángulo_" data-name="&lt;Rectángulo&gt;" class="cls-1" y="0.09" width="652.53" height="163.82"/><g id="_Grupo_" data-name="&lt;Grupo&gt;"><g id="_Grupo_2" data-name="&lt;Grupo&gt;"><path id="_Trazado_compuesto_" data-name="&lt;Trazado compuesto&gt;" class="cls-2" d="M126.51,72v31.44a2.53,2.53,0,0,1-2.53,2.53H111.61a2.53,2.53,0,0,1-2.53-2.53V75.69c0-5.57-3.62-7.43-7.81-7.43-5.19,0-10.34,2.19-10.43,11.34v23.82a2.53,2.53,0,0,1-2.53,2.53H76a2.53,2.53,0,0,1-2.53-2.53V58A2.53,2.53,0,0,1,76,55.49H88.31A2.53,2.53,0,0,1,90.84,58h0a1.19,1.19,0,0,0,1.93.94,22.78,22.78,0,0,1,14.17-4.41C120.08,54.54,126.51,61,126.51,72Z"/></g><g id="_Grupo_3" data-name="&lt;Grupo&gt;"><path id="_Trazado_compuesto_2" data-name="&lt;Trazado compuesto&gt;" class="cls-2" d="M144.15,80.69c0-16.62,11.81-26.15,29-26.15s29.11,9.53,29.11,26.15-11.91,26.2-29.11,26.2S144.15,97.36,144.15,80.69Zm40.78,0c0-7.53-4.57-12.72-12-12.72-7,0-11.48,5.19-11.48,12.72s4.48,12.67,11.48,12.67C180.35,93.36,184.93,88.17,184.93,80.69Z"/></g><g id="_Grupo_4" data-name="&lt;Grupo&gt;"><path id="_Trazado_compuesto_3" data-name="&lt;Trazado compuesto&gt;" class="cls-2" d="M270.7,84.17H237.1c.71,6.29,5.24,9.29,10.77,9.29,3.71,0,6.57-1.25,8.19-4a2.48,2.48,0,0,1,2.45-1.16l11.1,1.42a2.52,2.52,0,0,1,2,3.49c-3.91,8.88-12.76,13.67-23.66,13.67-17.39,0-28.11-9.53-28.11-26.1S231,54.44,247.39,54.44c14.72,0,25.82,7.57,25.91,25.72l-.08,1.6A2.53,2.53,0,0,1,270.7,84.17Zm-28.94-11h10.43a2.53,2.53,0,0,0,1.75-4.36,9,9,0,0,0-6.45-2.36c-3.24,0-5.77.73-7.54,2.43A2.52,2.52,0,0,0,241.76,73.16Z"/></g><g id="_Grupo_5" data-name="&lt;Grupo&gt;"><path id="_Trazado_compuesto_4" data-name="&lt;Trazado compuesto&gt;" class="cls-2" d="M420.64,104.46h0a1.48,1.48,0,0,1-1.48,1.48H406a1.48,1.48,0,0,1-1.45-1.18l-.81-4c-3.57,4.38-10.38,6.14-16.15,6.14-7.72,0-15.91-3.19-15.91-14s8-14.05,18.15-16.62l8.1-2c3.91-1,5.1-2,5.1-3.91,0-3.48-4-4.19-7-4.19-3.9,0-6.8,1.21-8.13,4.8a2.56,2.56,0,0,1-2.8,1.69l-10.25-1.69a2.53,2.53,0,0,1-2-3.31c3.11-9,10.79-13.05,24.26-13.05,10.15,0,22.34,2.24,22.34,18.63v20A50.94,50.94,0,0,0,420.64,104.46ZM403.09,88.69A2.53,2.53,0,0,0,400,85.32l-7.37,2.47c-2.24.76-4.43,1.67-4.43,3.91,0,2.43,2.29,3.81,5,3.81A11.07,11.07,0,0,0,403.09,88.69Z"/></g><g id="_Grupo_6" data-name="&lt;Grupo&gt;"><path id="_Trazado_compuesto_5" data-name="&lt;Trazado compuesto&gt;" class="cls-2" d="M489.08,55.49A2.53,2.53,0,0,1,491.61,58v43.44c0,21.05-11.53,28.2-28.11,28.2-14.22,0-22-5.25-25.87-13.34a2.53,2.53,0,0,1,1.33-3.44l9.94-4a2.52,2.52,0,0,1,3.13,1.07c2.59,4.49,5.72,6.46,10.8,6.46,7.86,0,11.29-4.67,11.29-13.58h0a1.94,1.94,0,0,0-3-1.65A21.15,21.15,0,0,1,460.27,104c-12.39,0-22.91-9.57-22.91-24.87s10.53-24.58,23.1-24.58c5.25,0,9.59,1.61,12.43,4.13a1.24,1.24,0,0,0,2.07-.83h0a2.53,2.53,0,0,1,2.52-2.34ZM475.89,79.12a10.93,10.93,0,1,0-10.91,11A10.65,10.65,0,0,0,475.89,79.12Z"/></g><g id="_Grupo_7" data-name="&lt;Grupo&gt;"><path id="_Trazado_compuesto_6" data-name="&lt;Trazado compuesto&gt;" class="cls-2" d="M509.25,80.69c0-16.62,11.81-26.15,29-26.15s29.11,9.53,29.11,26.15-11.91,26.2-29.11,26.2S509.25,97.36,509.25,80.69Zm40.78,0C550,73.16,545.45,68,538,68c-7,0-11.48,5.19-11.48,12.72S531,93.36,538,93.36C545.45,93.36,550,88.17,550,80.69Z"/></g><g id="_Grupo_8" data-name="&lt;Grupo&gt;"><g id="_Grupo_9" data-name="&lt;Grupo&gt;"><g id="_Grupo_10" data-name="&lt;Grupo&gt;"><path id="_Trazado_compuesto_7" data-name="&lt;Trazado compuesto&gt;" class="cls-2" d="M306.07,131H293.48a2.54,2.54,0,0,1-2.54-2.54V62.15a2.54,2.54,0,0,1,2.54-2.54h12.59a2.54,2.54,0,0,1,2.54,2.54v66.28A2.54,2.54,0,0,1,306.07,131Z"/></g><g id="_Grupo_11" data-name="&lt;Grupo&gt;"><path id="_Trazado_compuesto_8" data-name="&lt;Trazado compuesto&gt;" class="cls-2" d="M309.24,42.16a9.46,9.46,0,1,1-9.44-9.39A9.57,9.57,0,0,1,309.24,42.16Z"/></g></g><g id="_Grupo_12" data-name="&lt;Grupo&gt;"><g id="_Grupo_13" data-name="&lt;Grupo&gt;"><path id="_Trazado_compuesto_9" data-name="&lt;Trazado compuesto&gt;" class="cls-2" d="M338.9,32.77h12.59A2.54,2.54,0,0,1,354,35.31v66.28a2.54,2.54,0,0,1-2.54,2.54H338.9a2.54,2.54,0,0,1-2.54-2.54V35.31A2.54,2.54,0,0,1,338.9,32.77Z"/></g><g id="_Grupo_14" data-name="&lt;Grupo&gt;"><path id="_Trazado_compuesto_10" data-name="&lt;Trazado compuesto&gt;" class="cls-2" d="M335.73,121.58a9.46,9.46,0,1,1,9.44,9.39A9.57,9.57,0,0,1,335.73,121.58Z"/></g></g></g></g></svg>