<svg id="Capa_1" data-name="Capa 1" xmlns="http://www.w3.org/2000/svg" viewBox="0 0 163.8 163.8"><defs><style>.cls-1{fill:#282828;}.cls-2{fill:#f7f9fb;}.cls-3{font-size:11.63px;font-family:CerebriSans-Heavy, Cerebri Sans;}</style></defs><title>Artboard 1</title><circle id="_Trazado_" data-name=" Trazado " class="cls-1" cx="81.9" cy="81.9" r="59.49"/><g id="_Grupo_" data-name=" Grupo "><g id="_Grupo_2" data-name=" Grupo 2"><path id="_Trazado_compuesto_" data-name=" Trazado compuesto " class="cls-2" d="M70,117.56H60.84A1.8,1.8,0,0,1,59,115.75V67.52a1.8,1.8,0,0,1,1.82-1.82H70a1.8,1.8,0,0,1,1.82,1.82v48.16A1.82,1.82,0,0,1,70,117.56Z"/></g><g id="_Grupo_3" data-name=" Grupo 3"><path id="_Trazado_compuesto_2" data-name=" Trazado compuesto 2" class="cls-2" d="M72.31,53a6.86,6.86,0,1,1-6.9-6.83h.07A7,7,0,0,1,72.31,53Z"/></g></g><g id="_Grupo_4" data-name=" Grupo 4"><g id="_Grupo_5" data-name=" Grupo 5"><path id="_Trazado_compuesto_3" data-name=" Trazado compuesto 3" class="cls-2" d="M93.81,46.16H103A1.8,1.8,0,0,1,104.78,48h0V96.14A1.8,1.8,0,0,1,103,98H93.81A1.8,1.8,0,0,1,92,96.14h0V48.05a1.86,1.86,0,0,1,1.82-1.89Z"/></g><g id="_Grupo_6" data-name=" Grupo 6"><path id="_Trazado_compuesto_4" data-name=" Trazado compuesto 4" class="cls-2" d="M91.56,110.74a6.86,6.86,0,1,1,6.9,6.83h-.07A6.87,6.87,0,0,1,91.56,110.74Z"/></g></g><text class="cls-3" transform="matrix(0.61, -0.79, 0.79, 0.61, 21.7, 39.72)">E</text><text class="cls-3" transform="matrix(0.48, -0.51, 0.51, 0.48, 25.93, 34.28)">V</text><text class="cls-3" transform="matrix(0.51, -0.48, 0.48, 0.51, 30.15, 29.77)">E</text><text class="cls-3" transform="matrix(0.54, -0.44, 0.44, 0.54, 33.66, 26.48)">R</text><text class="cls-3" transform="translate(37.76 23.16) rotate(-34.88) scale(0.7)">Y</text><text class="cls-3" transform="translate(42.26 20.05) rotate(-31) scale(0.7)">T</text><text class="cls-3" transform="matrix(0.63, -0.31, 0.31, 0.63, 46.07, 17.72)">H</text><text class="cls-3" transform="translate(52 14.81) rotate(-22.95) scale(0.7)">I</text><text class="cls-3" transform="matrix(0.66, -0.23, 0.23, 0.66, 54.69, 13.6)">N</text><text class="cls-3" transform="matrix(0.68, -0.17, 0.17, 0.68, 61.22, 11.35)">G</text><text class="cls-3" transform="translate(67.7 9.83) rotate(-9.81)"> </text><text class="cls-3" transform="translate(71.18 9.24) rotate(-7.22) scale(0.7)">I</text><text class="cls-3" transform="translate(74.08 8.84) rotate(-4.01) scale(0.7)">S</text><text class="cls-3" transform="matrix(1, -0.02, 0.02, 1, 79.44, 8.51)"> </text><text class="cls-3" transform="translate(82.91 8.42) rotate(3.17) scale(0.7)">A</text><text class="cls-3" transform="translate(89.22 8.79) rotate(7.72) scale(0.7)">B</text><text class="cls-3" transform="translate(94.51 9.48) rotate(12.39) scale(0.7)">O</text><text class="cls-3" transform="translate(101.02 10.93) rotate(17.34) scale(0.7)">U</text><text class="cls-3" transform="matrix(0.65, 0.26, -0.26, 0.65, 106.68, 12.73)">T</text><text class="cls-3" transform="translate(110.89 14.4) rotate(24.55)"> </text><text class="cls-3" transform="translate(114.04 15.8) rotate(28.34) scale(0.7)">D</text><text class="cls-3" transform="matrix(0.59, 0.38, -0.38, 0.59, 119.45, 18.75)">E</text><text class="cls-3" transform="matrix(0.56, 0.42, -0.42, 0.56, 123.49, 21.33)">S</text><text class="cls-3" transform="translate(127.77 24.55) rotate(39.79) scale(0.7)">I</text><text class="cls-3" transform="translate(130.06 26.38) rotate(43.51) scale(0.7)">G</text><text class="cls-3" transform="translate(134.87 30.95) rotate(48.76) scale(0.7)">N</text><text class="cls-3" transform="translate(139.4 36.21) rotate(52.95)">.</text><text class="cls-3" transform="matrix(0.73, 0.68, -0.68, 0.73, 24.39, 136.79)">&amp;</text><text class="cls-3" transform="matrix(0.79, 0.61, -0.61, 0.79, 31.85, 143.52)"> </text><text class="cls-3" transform="translate(34.98 146.06) rotate(33.12)">D</text><text class="cls-3" transform="matrix(0.62, 0.33, -0.33, 0.62, 42.97, 151.12)">E</text><text class="cls-3" transform="translate(47.67 153.57) rotate(23.67) scale(0.7)">S</text><text class="cls-3" transform="matrix(0.66, 0.24, -0.24, 0.66, 52.95, 155.83)">I</text><text class="cls-3" transform="translate(56.15 157.06) rotate(16.52) scale(0.7)">G</text><text class="cls-3" transform="translate(63.12 159.11) rotate(11.14) scale(0.7)">N</text><text class="cls-3" transform="translate(70.46 160.46) rotate(7.04)"> </text><text class="cls-3" transform="matrix(0.7, 0.05, -0.05, 0.7, 74.26, 160.91)">I</text><text class="cls-3" transform="matrix(0.7, 0.01, -0.01, 0.7, 77.59, 161.19)">S</text><text class="cls-3" transform="translate(83.34 161.27) rotate(-2.18)"> </text><text class="cls-3" transform="matrix(0.7, -0.07, 0.07, 0.7, 87.28, 161.14)">A</text><text class="cls-3" transform="translate(94.16 160.37) rotate(-10.73) scale(0.7)">B</text><text class="cls-3" transform="translate(99.95 159.27) rotate(-15.48) scale(0.7)">O</text><text class="cls-3" transform="matrix(0.66, -0.25, 0.25, 0.66, 106.96, 157.28)">U</text><text class="cls-3" transform="translate(112.98 154.98) rotate(-24.66) scale(0.7)">T</text><text class="cls-3" transform="matrix(0.88, -0.47, 0.47, 0.88, 117.42, 152.91)"> </text><text class="cls-3" transform="matrix(0.6, -0.36, 0.36, 0.6, 120.9, 151.09)">S</text><text class="cls-3" transform="translate(125.86 148.03) rotate(-35.35) scale(0.7)">E</text><text class="cls-3" transform="translate(130.21 144.95) rotate(-39.81) scale(0.7)">X</text><text class="cls-3" transform="matrix(0.72, -0.69, 0.69, 0.72, 135.58, 140.38)">.</text><g id="_Grupo_2-2" data-name=" Grupo "><g id="_Grupo_2-3" data-name=" Grupo 2"><path id="_Trazado_compuesto_2-2" data-name=" Trazado compuesto " class="cls-1" d="M9.78,92.16H7.15a.52.52,0,0,1-.52-.52V77.78a.52.52,0,0,1,.52-.52H9.78a.52.52,0,0,1,.52.52V91.62A.52.52,0,0,1,9.78,92.16Z"/></g><g id="_Grupo_3-2" data-name=" Grupo 3"><path id="_Trazado_compuesto_2-3" data-name=" Trazado compuesto 2" class="cls-1" d="M10.45,73.6a2,2,0,1,1-2-2h0A2,2,0,0,1,10.45,73.6Z"/></g></g><g id="_Grupo_3-3" data-name=" Grupo "><g id="_Grupo_2-4" data-name=" Grupo 2"><path id="_Trazado_compuesto_3-2" data-name=" Trazado compuesto " class="cls-1" d="M154,71.64h2.63a.52.52,0,0,1,.52.52V86a.52.52,0,0,1-.52.52H154a.52.52,0,0,1-.52-.52V72.18A.52.52,0,0,1,154,71.64Z"/></g><g id="_Grupo_3-4" data-name=" Grupo 3"><path id="_Trazado_compuesto_2-4" data-name=" Trazado compuesto 2" class="cls-1" d="M153.35,90.2a2,2,0,1,1,2,2h0A2,2,0,0,1,153.35,90.2Z"/></g></g></svg>