<svg id="Layer_1" data-name="Layer 1" xmlns="http://www.w3.org/2000/svg" viewBox="0 0 936 936"><defs><style>.cls-1{fill:#282828;}.cls-2{fill:none;stroke:#282828;stroke-linejoin:round;stroke-width:39px;}</style></defs><title>iconArtboard 1 copy 8</title><path class="cls-1" d="M831.55,39A65.53,65.53,0,0,1,897,104.45V831.55A65.53,65.53,0,0,1,831.55,897H104.45A65.53,65.53,0,0,1,39,831.55V104.45A65.53,65.53,0,0,1,104.45,39H831.55m0-39H104.45A104.45,104.45,0,0,0,0,104.45V831.55A104.45,104.45,0,0,0,104.45,936H831.55A104.45,104.45,0,0,0,936,831.55V104.45A104.45,104.45,0,0,0,831.55,0Z"/><path class="cls-2" d="M505.83,290.69c-4.3-.18-8.76-.28-13.45-.28h-1.32l-3.63,0-3.16.06-1.32,0c-20.26.56-37.19,2.94-51.31,6.48l30.61-175.19a9,9,0,0,0-8.86-10.55H411.65a9,9,0,0,0-8.86,7.43L362,349.45a25.61,25.61,0,0,0-.84,3.19l-41.9,237.65a25.26,25.26,0,0,0-.21,4.24c-.29,11.66,5.28,52.43,96.12,56.13,4.27.18,8.71.28,13.37.28h1.38l3.57,0,3.19-.06,1.29,0c20.27-.56,37.2-2.94,51.32-6.48L458.68,819.52a9,9,0,0,0,8.86,10.55h41.74a9,9,0,0,0,8.86-7.43l40.78-230.74a25.59,25.59,0,0,0,.84-3.19l41.9-237.65a25.27,25.27,0,0,0,.2-4.24C602.15,335.16,596.59,294.42,505.83,290.69ZM485.36,581.43q-1.09.59-2.27,1.17l-.56.26c-.69.33-1.39.65-2.12,1l-1,.42c-.61.25-1.22.5-1.87.74s-1.09.39-1.65.58-1,.34-1.47.5c-.82.26-1.67.51-2.53.76l-.82.24c-8.36,2.29-18.79,3.76-31.83,3.76-11.83,0-21.1-1.16-28.37-3-19-4.94-24.33-14.78-25.74-21.12a15.91,15.91,0,0,1-.21-5.4l32.24-180.73s2.17-11.74,18.24-20.55l.18-.09q1.1-.6,2.28-1.18l.54-.25c.69-.33,1.4-.65,2.13-1l1-.41c.62-.25,1.23-.5,1.88-.75s1.08-.38,1.63-.57,1-.35,1.49-.51c.81-.26,1.66-.51,2.51-.75l.84-.25c8.36-2.29,18.79-3.76,31.83-3.76,11.82,0,21.09,1.16,28.35,3,19,4.94,24.34,14.78,25.76,21.13a15.91,15.91,0,0,1,.21,5.39L503.79,560.78s-2.17,11.73-18.24,20.55Z"/></svg>