<svg xmlns="http://www.w3.org/2000/svg" viewBox="0 0 96 96"><defs><style>.cls-1{fill:#231f20;}</style></defs><title>iconArtboard 1 copia 59</title><g id="Your_Icons" data-name="Your Icons"><path class="cls-1" d="M38.6,17.13V31.9H53.06v8.66H38.6V61.65a8.57,8.57,0,0,0,8.56,8.57H66.06v8.66H47.16A17.24,17.24,0,0,1,29.94,61.65V17.13H38.6m0-5.28H29.94a5.28,5.28,0,0,0-5.28,5.28V61.65a22.52,22.52,0,0,0,22.5,22.5H66.06a5.28,5.28,0,0,0,5.28-5.28V70.22a5.28,5.28,0,0,0-5.28-5.28H47.16a3.29,3.29,0,0,1-3.29-3.29V45.84h9.19a5.28,5.28,0,0,0,5.28-5.28V31.9a5.28,5.28,0,0,0-5.28-5.28H43.87v-9.5a5.28,5.28,0,0,0-5.28-5.28Z"/></g></svg>