<svg id="Layer_1" data-name="Layer 1" xmlns="http://www.w3.org/2000/svg" viewBox="0 0 936 936"><defs><style>.cls-1{fill:none;stroke:#282828;stroke-miterlimit:10;stroke-width:14px;}</style></defs><title>icon_Artboard 1 copy 8</title><rect class="cls-1" x="144" y="144" width="648" height="648" rx="72.31" ry="72.31"/><path class="cls-1" d="M494.19,345.25c-3-.12-6.07-.2-9.31-.2H484l-2.52,0-2.19,0-.91,0a164.8,164.8,0,0,0-35.52,4.48L464,228.34a6.23,6.23,0,0,0-6.14-7.3H429a6.23,6.23,0,0,0-6.13,5.15L394.62,385.93a17.73,17.73,0,0,0-.58,2.21L365,552.66a17.49,17.49,0,0,0-.14,2.93c-.2,8.07,3.66,36.3,66.54,38.86,3,.12,6,.19,9.26.19h1l2.47,0,2.21,0,.89,0a164.84,164.84,0,0,0,35.53-4.48L461.55,711.36a6.23,6.23,0,0,0,6.14,7.3h28.89a6.23,6.23,0,0,0,6.13-5.15l28.23-159.74a17.71,17.71,0,0,0,.58-2.21l29-164.53a17.49,17.49,0,0,0,.14-2.93C560.88,376,557,347.83,494.19,345.25ZM480,546.53q-.76.41-1.57.81l-.38.18c-.48.23-1,.45-1.47.67l-.71.29c-.42.17-.85.35-1.29.51l-1.14.4-1,.35c-.57.18-1.16.36-1.75.53l-.57.17a83.39,83.39,0,0,1-22,2.6,80.11,80.11,0,0,1-19.64-2.08c-13.13-3.42-16.84-10.23-17.82-14.62a11,11,0,0,1-.14-3.74l22.32-125.12s1.5-8.12,12.63-14.23l.12-.06q.76-.41,1.58-.81l.37-.17c.48-.23,1-.45,1.48-.67l.7-.28c.43-.17.85-.35,1.3-.52l1.13-.4,1-.35c.56-.18,1.15-.35,1.74-.52l.58-.17a83.4,83.4,0,0,1,22-2.6,80.14,80.14,0,0,1,19.63,2.08C510.26,392.17,514,399,515,403.38a11,11,0,0,1,.14,3.73L492.77,532.23s-1.5,8.12-12.63,14.23Z"/></svg>