<svg xmlns="http://www.w3.org/2000/svg" viewBox="0 0 96 96"><defs><style>.cls-1{fill:none;stroke:#231f20;stroke-linecap:round;stroke-linejoin:round;stroke-width:5.27px;}</style></defs><title>iconArtboard 1 copia 58</title><g id="Your_Icons" data-name="Your Icons"><path id="Behance" class="cls-1" d="M62.2,16.72H33.52V9.59H62.2v7.13ZM72.84,48.27a65.55,65.55,0,0,1,.44,10.13H36.14c.21,5.13,2,8.71,5.34,10.76a13.42,13.42,0,0,0,7.35,1.91A10.35,10.35,0,0,0,59,65.24H72.58c-.36,3-2,6.09-4.95,9.22q-6.84,7.43-19.18,7.45a27.87,27.87,0,0,1-18-6.28q-7.77-6.28-7.78-20.43,0-13.27,7-20.34c4.7-4.72,10.77-7.07,18.25-7.07a29.15,29.15,0,0,1,12,2.38,20.67,20.67,0,0,1,8.8,7.56A25.24,25.24,0,0,1,72.84,48.27ZM58,48.94a9.75,9.75,0,0,0-3.13-7.08A10.2,10.2,0,0,0,48,39.43,9.3,9.3,0,0,0,41,42a12.12,12.12,0,0,0-3.12,6.94Z"/></g></svg>