<svg id="Layer_1" data-name="Layer 1" xmlns="http://www.w3.org/2000/svg" viewBox="0 0 936 936"><defs><style>.cls-1{fill:#282828;}.cls-2{fill:none;stroke:#282828;stroke-linejoin:round;stroke-width:39px;}</style></defs><title>iconArtboard 1 copy 10</title><path class="cls-1" d="M831.55,39A65.53,65.53,0,0,1,897,104.45V831.55A65.53,65.53,0,0,1,831.55,897H104.45A65.53,65.53,0,0,1,39,831.55V104.45A65.53,65.53,0,0,1,104.45,39H831.55m0-39H104.45A104.45,104.45,0,0,0,0,104.45V831.55A104.45,104.45,0,0,0,104.45,936H831.55A104.45,104.45,0,0,0,936,831.55V104.45A104.45,104.45,0,0,0,831.55,0Z"/><path id="_Path_" data-name="&lt;Path&gt;" class="cls-2" d="M659,345.29V645.42c0,25.1,39.35,27.25,51.22,27.32a3.38,3.38,0,0,1,3.35,3.41v17a6.82,6.82,0,0,1-6.82,6.82H529.39a6.82,6.82,0,0,1-6.82-6.82V372.58S521,318,468,318s-54.57,54.57-54.57,54.57V693.16a6.82,6.82,0,0,1-6.82,6.82H283.83a6.82,6.82,0,0,1-6.82-6.82V318c0-23.59-39.57-26.79-51.32-27.22a3.39,3.39,0,0,1-3.25-3.41V270.26a6.82,6.82,0,0,1,6.82-6.82H399.79a13.64,13.64,0,0,1,13.64,13.64V318s.11-82,136.68-82C668.62,236,659,345.29,659,345.29Z"/></svg>