<svg id="Layer_1" data-name="Layer 1" xmlns="http://www.w3.org/2000/svg" viewBox="0 0 936 936"><defs><style>.cls-1{fill:#282828;}.cls-2{fill:none;stroke:#282828;stroke-linejoin:round;stroke-width:39px;}</style></defs><title>iconArtboard 1 copy 6</title><path class="cls-1" d="M831.55,39A65.53,65.53,0,0,1,897,104.45V831.55A65.53,65.53,0,0,1,831.55,897H104.45A65.53,65.53,0,0,1,39,831.55V104.45A65.53,65.53,0,0,1,104.45,39H831.55m0-39H104.45A104.45,104.45,0,0,0,0,104.45V831.55A104.45,104.45,0,0,0,104.45,936H831.55A104.45,104.45,0,0,0,936,831.55V104.45A104.45,104.45,0,0,0,831.55,0Z"/><g id="_Group_" data-name="&lt;Group&gt;"><rect id="_Path_" data-name="&lt;Path&gt;" class="cls-2" x="311.31" y="260.69" width="313.39" height="574.55" rx="78.35" ry="78.35"/><path id="_Path_2" data-name="&lt;Path&gt;" class="cls-2" d="M415.77,783a52.23,52.23,0,0,0,104.46,0V312.93a52.23,52.23,0,0,0-104.46,0Z"/><circle id="_Path_3" data-name="&lt;Path&gt;" class="cls-2" cx="468" cy="156.23" r="52.23"/></g></svg>