<svg id="Layer_1" data-name="Layer 1" xmlns="http://www.w3.org/2000/svg" viewBox="0 0 936 936"><defs><style>.cls-1{fill:none;stroke:#282828;stroke-miterlimit:10;stroke-width:14px;}</style></defs><title>icon_Artboard 1</title><rect class="cls-1" x="144" y="144" width="648" height="648" rx="72.31" ry="72.31"/><path class="cls-1" d="M682.57,398.86h-144a1.43,1.43,0,0,1-1.43-1.43v-144a1.43,1.43,0,0,0-1.43-1.43H400.29a1.43,1.43,0,0,0-1.43,1.43v144a1.43,1.43,0,0,1-1.43,1.43h-144a1.43,1.43,0,0,0-1.43,1.43V535.71a1.43,1.43,0,0,0,1.43,1.43h144a1.43,1.43,0,0,1,1.43,1.43v144a1.43,1.43,0,0,0,1.43,1.43H535.71a1.43,1.43,0,0,0,1.43-1.43v-144a1.43,1.43,0,0,1,1.43-1.43h144a1.43,1.43,0,0,0,1.43-1.43V400.29A1.43,1.43,0,0,0,682.57,398.86Z"/></svg>