<svg id="Layer_1" data-name="Layer 1" xmlns="http://www.w3.org/2000/svg" viewBox="0 0 936 936"><defs><style>.cls-1{fill:none;stroke:#282828;stroke-miterlimit:10;stroke-width:14px;}</style></defs><title>icon_Artboard 1 copy 10</title><rect class="cls-1" x="144" y="144" width="648" height="648" rx="72.31" ry="72.31"/><path id="_Path_" data-name="&lt;Path&gt;" class="cls-1" d="M600.22,383V590.83c0,17.38,27.24,18.86,35.46,18.92A2.34,2.34,0,0,1,638,612.1v11.78a4.72,4.72,0,0,1-4.72,4.72H510.5a4.72,4.72,0,0,1-4.72-4.72V401.94S504.7,364.16,468,364.16s-37.78,37.78-37.78,37.78V623.88a4.72,4.72,0,0,1-4.72,4.72h-85a4.72,4.72,0,0,1-4.72-4.72V364.16c0-16.33-27.39-18.55-35.53-18.84A2.34,2.34,0,0,1,298,343V331.1a4.72,4.72,0,0,1,4.72-4.72H420.78a9.44,9.44,0,0,1,9.44,9.44v28.33s.07-56.76,94.62-56.76C606.89,307.4,600.22,383,600.22,383Z"/></svg>