<svg id="Layer_1" data-name="Layer 1" xmlns="http://www.w3.org/2000/svg" viewBox="0 0 936 936"><defs><style>.cls-1{fill:#282828;}.cls-2{fill:none;stroke:#282828;stroke-miterlimit:10;stroke-width:39px;}</style></defs><title>Artboard 1</title><path class="cls-1" d="M831.55,39A65.53,65.53,0,0,1,897,104.45V831.55A65.53,65.53,0,0,1,831.55,897H104.45A65.53,65.53,0,0,1,39,831.55V104.45A65.53,65.53,0,0,1,104.45,39H831.55m0-39H104.45A104.45,104.45,0,0,0,0,104.45V831.55A104.45,104.45,0,0,0,104.45,936H831.55A104.45,104.45,0,0,0,936,831.55V104.45A104.45,104.45,0,0,0,831.55,0Z"/><path class="cls-2" d="M777.94,368.14h-208a2.06,2.06,0,0,1-2.06-2.06v-208a2.06,2.06,0,0,0-2.06-2.06H370.19a2.06,2.06,0,0,0-2.06,2.06v208a2.06,2.06,0,0,1-2.06,2.06h-208a2.06,2.06,0,0,0-2.06,2.06V565.81a2.06,2.06,0,0,0,2.06,2.06h208a2.06,2.06,0,0,1,2.06,2.06v208a2.06,2.06,0,0,0,2.06,2.06H565.81a2.06,2.06,0,0,0,2.06-2.06v-208a2.06,2.06,0,0,1,2.06-2.06h208a2.06,2.06,0,0,0,2.06-2.06V370.19A2.06,2.06,0,0,0,777.94,368.14Z"/></svg>