<?xml version="1.0" encoding="utf-8"?>
<!-- Generator: Adobe Illustrator 19.0.0, SVG Export Plug-In . SVG Version: 6.00 Build 0)  -->
<svg version="1.1" id="Capa_1" xmlns="http://www.w3.org/2000/svg" xmlns:xlink="http://www.w3.org/1999/xlink" x="0px" y="0px"
	 viewBox="230 -34 652.5 164" style="enable-background:new 230 -34 652.5 164;" xml:space="preserve">
<style type="text/css">
	.st0{fill:#282828;}
	.st1{fill:#F7F9FB;}
</style>
<title>Mesa de trabajo 6 copia 3</title>
<metadata><?xpacket begin="﻿" id="W5M0MpCehiHzreSzNTczkc9d"?>
<x:xmpmeta xmlns:x="adobe:ns:meta/" x:xmptk="Adobe XMP Core 5.6-c067 79.157747, 2015/03/30-23:40:42        ">
   <rdf:RDF xmlns:rdf="http://www.w3.org/1999/02/22-rdf-syntax-ns#">
      <rdf:Description rdf:about=""
            xmlns:dc="http://purl.org/dc/elements/1.1/">
         <dc:title>
            <rdf:Alt>
               <rdf:li xml:lang="x-default">Mesa de trabajo 6 copia 3</rdf:li>
            </rdf:Alt>
         </dc:title>
      </rdf:Description>
   </rdf:RDF>
</x:xmpmeta>
                                                                                                    
                                                                                                    
                                                                                                    
                                                                                                    
                                                                                                    
                                                                                                    
                                                                                                    
                                                                                                    
                                                                                                    
                                                                                                    
                                                                                                    
                                                                                                    
                                                                                                    
                                                                                                    
                                                                                                    
                                                                                                    
                                                                                                    
                                                                                                    
                                                                                                    
                                                                                                    
                           
<?xpacket end="w"?></metadata>
<rect id="_Rectángulo_" x="230" y="-33.9" class="st0" width="652.5" height="163.8"/>
<g id="_Grupo_">
	<g id="_Grupo_2">
		<path id="_Trazado_compuesto_" class="st1" d="M356.5,38v31.4c0,1.4-1.1,2.5-2.5,2.5h-12.4c-1.4,0-2.5-1.1-2.5-2.5V41.7
			c0-5.6-3.6-7.4-7.8-7.4c-5.2,0-10.3,2.2-10.4,11.3v23.8c0,1.4-1.1,2.5-2.5,2.5H306c-1.4,0-2.5-1.1-2.5-2.5V24
			c0-1.4,1.1-2.5,2.5-2.5h12.3c1.4,0,2.5,1.1,2.5,2.5l0,0c0,0.7,0.5,1.2,1.2,1.2c0.3,0,0.5-0.1,0.7-0.3c4.1-3,9.1-4.6,14.2-4.4
			C350.1,20.5,356.5,27,356.5,38z"/>
	</g>
	<g id="_Grupo_3">
		<path id="_Trazado_compuesto_2" class="st1" d="M374.1,46.7c0-16.6,11.8-26.2,29-26.2s29.1,9.5,29.1,26.2s-11.9,26.2-29.1,26.2
			S374.1,63.4,374.1,46.7z M414.9,46.7c0-7.5-4.6-12.7-12-12.7c-7,0-11.5,5.2-11.5,12.7s4.5,12.7,11.5,12.7
			C410.4,59.4,414.9,54.2,414.9,46.7z"/>
	</g>
	<g id="_Grupo_4">
		<path id="_Trazado_compuesto_3" class="st1" d="M500.7,50.2h-33.6c0.7,6.3,5.2,9.3,10.8,9.3c3.7,0,6.6-1.2,8.2-4
			c0.5-0.8,1.5-1.3,2.5-1.2l11.1,1.4c1.4,0.2,2.4,1.4,2.2,2.8c0,0.2-0.1,0.5-0.2,0.7c-3.9,8.9-12.8,13.7-23.7,13.7
			c-17.4,0-28.1-9.5-28.1-26.1s11.2-26.3,27.5-26.3c14.7,0,25.8,7.6,25.9,25.7l-0.1,1.6C503.2,49.1,502,50.2,500.7,50.2z
			 M471.8,39.2h10.4c1.4,0,2.5-1.1,2.5-2.5c0-0.7-0.3-1.4-0.8-1.8c-1.8-1.6-4.1-2.5-6.5-2.4c-3.2,0-5.8,0.7-7.5,2.4
			c-1,1-1,2.6,0,3.6C470.5,38.9,471.1,39.2,471.8,39.2L471.8,39.2z"/>
	</g>
	<g id="_Grupo_5">
		<path id="_Trazado_compuesto_4" class="st1" d="M650.6,70.5L650.6,70.5c0,0.8-0.7,1.5-1.5,1.5l0,0H636c-0.7,0-1.3-0.5-1.5-1.2
			l-0.8-4c-3.6,4.4-10.4,6.1-16.2,6.1c-7.7,0-15.9-3.2-15.9-14s8-14.1,18.1-16.6l8.1-2c3.9-1,5.1-2,5.1-3.9c0-3.5-4-4.2-7-4.2
			c-3.9,0-6.8,1.2-8.1,4.8c-0.4,1.2-1.6,1.9-2.8,1.7L604.8,37c-1.4-0.2-2.3-1.5-2.1-2.9c0-0.1,0.1-0.3,0.1-0.4
			c3.1-9,10.8-13,24.3-13c10.2,0,22.3,2.2,22.3,18.6v20C649.4,63,649.8,66.8,650.6,70.5z M633.1,54.7c0.5-1.3-0.1-2.8-1.4-3.3
			c-0.5-0.2-1.1-0.2-1.7-0.1l-7.4,2.5c-2.2,0.8-4.4,1.7-4.4,3.9c0,2.4,2.3,3.8,5,3.8C627.6,61.4,631.4,58.7,633.1,54.7z"/>
	</g>
	<g id="_Grupo_6">
		<path id="_Trazado_compuesto_5" class="st1" d="M719.1,21.5c1.4,0,2.5,1.1,2.5,2.5v43.4c0,21.1-11.5,28.2-28.1,28.2
			c-14.2,0-22-5.2-25.9-13.3c-0.6-1.3-0.1-2.8,1.2-3.4c0,0,0.1,0,0.1-0.1l9.9-4c1.2-0.5,2.5,0,3.1,1.1c2.6,4.5,5.7,6.5,10.8,6.5
			c7.9,0,11.3-4.7,11.3-13.6l0,0c0-1.1-0.8-2-1.9-2c-0.4,0-0.8,0.1-1.1,0.3c-3.3,1.9-7,2.9-10.8,2.8c-12.4,0-22.9-9.6-22.9-24.9
			s10.5-24.6,23.1-24.6c5.2,0,9.6,1.6,12.4,4.1c0.5,0.5,1.3,0.4,1.8-0.1c0.2-0.2,0.3-0.5,0.3-0.7l0,0c0.1-1.3,1.2-2.3,2.5-2.3
			L719.1,21.5z M705.9,45.1c0-6-5-10.9-11-10.9c-6,0-10.9,5-10.9,11c0,6,4.9,10.9,10.9,10.9c5.9,0.1,10.8-4.5,10.9-10.4
			C705.9,45.5,705.9,45.3,705.9,45.1z"/>
	</g>
	<g id="_Grupo_7">
		<path id="_Trazado_compuesto_6" class="st1" d="M739.2,46.7c0-16.6,11.8-26.2,29-26.2s29.1,9.5,29.1,26.2s-11.9,26.2-29.1,26.2
			S739.2,63.4,739.2,46.7z M780,46.7c0-7.5-4.6-12.7-12-12.7c-7,0-11.5,5.2-11.5,12.7S761,59.4,768,59.4
			C775.5,59.4,780,54.2,780,46.7L780,46.7z"/>
	</g>
	<g id="_Grupo_8">
		<g id="_Grupo_9">
			<g id="_Grupo_10">
				<path id="_Trazado_compuesto_7" class="st1" d="M536.1,97h-12.6c-1.4,0-2.5-1.1-2.5-2.5l0,0V28.2c0-1.4,1.1-2.5,2.5-2.5l0,0
					h12.6c1.4,0,2.5,1.1,2.5,2.5c0,0,0,0,0,0v66.3C538.6,95.8,537.5,97,536.1,97C536.1,97,536.1,97,536.1,97z"/>
			</g>
			<g id="_Grupo_11">
				<path id="_Trazado_compuesto_8" class="st1" d="M539.2,8.2c0,5.2-4.2,9.5-9.4,9.5c-5.2,0-9.5-4.2-9.5-9.4s4.2-9.5,9.4-9.5
					c0,0,0.1,0,0.1,0C535-1.2,539.1,3,539.2,8.2z"/>
			</g>
		</g>
		<g id="_Grupo_12">
			<g id="_Grupo_13">
				<path id="_Trazado_compuesto_9" class="st1" d="M568.9-1.2h12.6c1.4,0,2.5,1.1,2.5,2.5v66.3c0,1.4-1.1,2.5-2.5,2.5l0,0h-12.6
					c-1.4,0-2.5-1.1-2.5-2.5v0V1.3C566.4-0.1,567.5-1.2,568.9-1.2L568.9-1.2z"/>
			</g>
			<g id="_Grupo_14">
				<path id="_Trazado_compuesto_10" class="st1" d="M565.7,87.6c0-5.2,4.2-9.5,9.4-9.5c5.2,0,9.5,4.2,9.5,9.4
					c0,5.2-4.2,9.5-9.4,9.5c0,0-0.1,0-0.1,0C570,96.9,565.8,92.7,565.7,87.6z"/>
			</g>
		</g>
	</g>
</g>
</svg>
